<?xml version="1.0" standalone="no"?>
<!DOCTYPE svg PUBLIC "-//W3C//DTD SVG 20010904//EN"
 "http://www.w3.org/TR/2001/REC-SVG-20010904/DTD/svg10.dtd">
<svg version="1.0" xmlns="http://www.w3.org/2000/svg"
 width="600.000000pt" height="535.000000pt" viewBox="0 0 600.000000 535.000000"
 preserveAspectRatio="xMidYMid meet">
<metadata>
Created by potrace 1.16, written by Peter Selinger 2001-2019
</metadata>
<g transform="translate(0.000000,535.000000) scale(0.100000,-0.100000)"
fill="#000000" stroke="none">
<path d="M0 2675 l0 -2675 2995 0 2995 0 0 2675 0 2675 -2995 0 -2995 0 0
-2675z m4250 1581 c0 -7 -49 -32 -110 -55 l-110 -42 0 -1140 c0 -725 -4 -1139
-10 -1139 -8 0 -694 160 -1720 400 -876 205 -1312 307 -1650 385 -206 48 -381
90 -388 94 -9 5 3 14 35 25 26 10 64 24 83 31 127 49 322 123 485 185 105 39
852 337 1662 661 810 324 1479 589 1488 589 9 0 15 -9 15 -25 0 -14 1 -25 3
-25 1 0 47 17 102 38 101 39 115 41 115 18z m-3865 -1587 c11 -5 46 -26 77
-47 117 -76 285 -183 363 -232 28 -17 77 -49 110 -70 33 -21 83 -53 110 -70
28 -17 84 -53 125 -80 41 -28 82 -53 90 -57 8 -4 36 -22 62 -40 26 -18 50 -33
52 -33 2 0 33 -19 68 -42 35 -24 103 -68 152 -98 48 -30 124 -79 168 -107 44
-29 82 -53 83 -53 2 0 32 -19 67 -42 35 -24 111 -72 167 -108 57 -36 132 -84
168 -107 35 -24 67 -43 69 -43 2 0 27 -16 54 -35 27 -19 52 -35 55 -35 2 0 30
-17 62 -39 32 -21 85 -55 118 -76 33 -21 86 -55 118 -76 32 -22 60 -39 62 -39
3 0 28 -16 55 -35 27 -19 52 -35 55 -35 2 0 30 -17 62 -39 32 -21 85 -55 118
-76 87 -55 121 -77 205 -131 41 -27 80 -51 85 -54 6 -3 44 -27 85 -54 79 -51
131 -85 190 -122 154 -97 192 -121 243 -155 32 -22 61 -39 64 -39 4 0 14 -6
22 -14 9 -8 27 -21 41 -28 85 -44 200 -125 197 -138 -2 -8 -9 -14 -15 -12 -13
2 -3869 2458 -3887 2475 -11 10 47 0 80 -14z m200 -43 c61 -14 254 -59 430
-100 176 -41 851 -199 1500 -351 1138 -266 1444 -338 1493 -351 l22 -6 0 -299
c0 -165 -3 -299 -6 -299 -10 0 -3557 1421 -3574 1432 -12 7 -11 8 5 4 11 -2
70 -16 130 -30z m4079 -848 c24 -57 28 -78 17 -78 -6 0 -11 7 -11 15 0 8 -9
15 -20 15 -11 0 -23 -7 -26 -15 -4 -8 -10 -15 -15 -15 -7 0 0 26 26 98 7 20
15 14 29 -20z m206 19 c0 -7 10 -17 23 -22 15 -7 23 -20 25 -42 2 -18 -1 -33
-7 -33 -5 0 -11 15 -13 33 -2 17 -7 32 -13 32 -5 0 -11 -15 -13 -32 -5 -54
-22 -37 -22 22 0 30 5 55 10 55 6 0 10 -6 10 -13z m-49 -9 c5 -57 2 -88 -7
-88 -7 0 -14 17 -16 38 -5 41 -1 62 13 62 5 0 10 -6 10 -12z m328 -22 c-12
-14 -11 -56 2 -56 5 0 7 -5 3 -11 -9 -16 -21 1 -26 41 -7 47 -1 63 17 47 8 -7
10 -16 4 -21z m-407 -54 c13 -2 18 6 21 35 l4 38 1 -41 c1 -29 -3 -44 -13 -48
-30 -11 -45 5 -44 48 l2 41 6 -35 c4 -21 12 -36 23 -38z m256 56 c19 -19 14
-56 -10 -69 -18 -10 -24 -8 -39 10 -33 40 13 95 49 59z m72 1 c0 -4 -6 -9 -14
-12 -8 -3 -16 -18 -19 -34 -3 -22 -4 -19 -6 12 -1 35 2 41 19 41 11 0 20 -3
20 -7z m27 -51 c-2 -13 -4 -3 -4 22 0 25 2 35 4 23 2 -13 2 -33 0 -45z m131
50 c7 -7 12 -24 12 -39 0 -32 -36 -47 -59 -25 -17 17 -6 36 20 36 12 0 19 5
16 13 -2 6 -12 11 -22 9 -10 -2 -14 1 -10 7 8 14 28 14 43 -1z m65 -5 c-7 -3
-13 -18 -13 -34 0 -16 -4 -29 -10 -29 -5 0 -10 15 -10 34 0 25 5 36 18 38 20
5 32 -3 15 -9z m47 -23 c0 -16 -4 -32 -10 -35 -6 -4 -10 10 -10 35 0 25 4 39
10 35 6 -3 10 -19 10 -35z m68 28 c7 -7 12 -24 12 -39 0 -32 -36 -47 -59 -25
-17 17 -6 36 20 36 12 0 19 5 16 13 -2 6 -12 11 -22 9 -10 -2 -14 1 -10 7 8
14 28 14 43 -1z m90 0 c14 -14 16 -68 3 -68 -6 0 -11 15 -13 33 -2 17 -7 32
-13 32 -5 0 -11 -15 -13 -32 -4 -44 -22 -42 -22 1 0 32 4 37 41 45 3 0 10 -4
17 -11z m52 -34 c0 -19 -4 -34 -10 -34 -5 0 -10 18 -10 41 0 24 4 38 10 34 6
-3 10 -22 10 -41z m66 34 c5 -8 2 -9 -9 -5 -9 3 -19 2 -22 -3 -4 -6 6 -15 20
-20 28 -11 29 -27 2 -44 -12 -8 -20 -7 -29 2 -9 9 -7 12 10 12 12 0 22 5 22
10 0 6 -6 10 -14 10 -19 0 -29 17 -22 35 6 18 32 20 42 3z m142 -30 c2 -21 -1
-38 -7 -38 -5 0 -11 15 -13 33 -4 41 -21 38 -29 -5 -6 -29 -7 -30 -8 -7 0 15
-8 32 -16 39 -16 13 -20 8 -28 -40 -3 -16 -5 -10 -6 16 l-1 41 53 -1 52 -1 3
-37z m-1128 -168 c-11 -21 -10 -52 6 -95 l7 -20 -16 20 c-9 11 -17 35 -17 53
0 33 17 78 27 69 2 -3 -1 -15 -7 -27z m680 -24 c0 -49 -2 -54 -25 -60 -35 -9
-45 -1 -45 39 0 32 20 52 41 39 5 -3 9 4 9 15 0 12 5 21 10 21 6 0 10 -24 10
-54z m40 28 c15 -39 12 -69 -10 -95 l-20 -24 15 36 c14 36 11 73 -8 97 -6 8
-6 12 2 12 6 0 16 -12 21 -26z m-615 6 c12 -20 -6 -50 -31 -50 -17 0 -24 -6
-24 -19 0 -11 -4 -23 -10 -26 -6 -4 -10 15 -10 49 l0 56 34 0 c19 0 38 -5 41
-10z m389 -50 c1 -27 -1 -50 -5 -50 -8 0 -17 80 -11 98 8 23 15 4 16 -48z
m-260 24 c29 -29 13 -74 -26 -74 -35 0 -45 61 -14 82 16 11 23 10 40 -8z m124
4 c20 -20 14 -38 -13 -38 -34 0 -32 -18 3 -22 24 -4 25 -5 8 -13 -41 -18 -77
45 -40 72 22 16 27 16 42 1z m89 -5 c3 -7 -3 -9 -16 -6 -14 3 -23 0 -27 -11
-8 -22 13 -46 34 -39 13 5 14 3 6 -7 -7 -7 -21 -9 -33 -5 -38 12 -21 90 18 83
8 -2 16 -8 18 -15z m131 5 c20 -20 14 -38 -14 -38 -16 0 -24 -5 -21 -12 2 -7
15 -12 28 -11 l24 3 -22 -12 c-17 -8 -26 -8 -38 2 -27 23 -13 80 20 80 6 0 16
-5 23 -12z m-420 -5 c-13 -3 -18 -15 -18 -39 0 -21 -4 -33 -10 -29 -5 3 -10
22 -10 41 0 31 3 34 28 33 16 -1 20 -3 10 -6z m111 -97 c-9 -8 -10 -7 -5 7 3
10 7 37 8 60 2 41 2 41 5 -7 3 -30 0 -53 -8 -60z"/>
<path d="M4636 1765 c-9 -23 -8 -25 9 -25 17 0 19 9 6 28 -7 11 -10 10 -15 -3z"/>
<path d="M4961 1761 c-18 -11 -10 -45 12 -49 12 -3 17 3 17 22 0 29 -10 38
-29 27z"/>
<path d="M5190 1720 c0 -5 7 -10 15 -10 8 0 15 5 15 10 0 6 -7 10 -15 10 -8 0
-15 -4 -15 -10z"/>
<path d="M5370 1720 c0 -5 7 -10 15 -10 8 0 15 5 15 10 0 6 -7 10 -15 10 -8 0
-15 -4 -15 -10z"/>
<path d="M5257 1543 c-15 -15 -7 -43 13 -43 15 0 20 7 20 25 0 24 -18 34 -33
18z"/>
<path d="M4680 1559 c0 -14 5 -19 17 -17 26 5 29 38 4 38 -15 0 -21 -6 -21
-21z"/>
<path d="M4820 1525 c0 -18 5 -25 20 -25 15 0 20 7 20 25 0 18 -5 25 -20 25
-15 0 -20 -7 -20 -25z"/>
<path d="M4950 1540 c0 -5 9 -10 21 -10 11 0 17 5 14 10 -3 6 -13 10 -21 10
-8 0 -14 -4 -14 -10z"/>
<path d="M5170 1540 c0 -5 7 -10 15 -10 8 0 15 5 15 10 0 6 -7 10 -15 10 -8 0
-15 -4 -15 -10z"/>
</g>
</svg>
